<?xml version="1.0" standalone="no"?>
<!DOCTYPE svg PUBLIC "-//W3C//DTD SVG 20010904//EN"
 "http://www.w3.org/TR/2001/REC-SVG-20010904/DTD/svg10.dtd">
<svg version="1.0" xmlns="http://www.w3.org/2000/svg"
 width="512.000000pt" height="512.000000pt" viewBox="0 0 512.000000 512.000000"
 preserveAspectRatio="xMidYMid meet">
<metadata>
Created by potrace 1.14, written by Peter Selinger 2001-2017
</metadata>
<g transform="translate(0.000000,512.000000) scale(0.100000,-0.100000)"
fill="#000000" stroke="none">
<path d="M171 5103 c-19 -10 -44 -31 -55 -46 -21 -28 -21 -34 -21 -960 l0
-932 22 -40 c30 -56 64 -87 273 -245 102 -77 275 -209 384 -293 110 -83 212
-160 228 -170 l28 -19 0 -234 c0 -232 0 -235 23 -258 13 -13 29 -25 36 -27 10
-4 13 -27 13 -84 0 -116 0 -115 -25 -124 -48 -19 -48 -10 -45 -751 l3 -695 24
-49 c32 -64 83 -114 151 -148 l55 -28 1665 3 1665 2 55 28 c57 30 120 89 145
137 13 26 47 141 59 200 3 14 44 178 91 365 93 367 97 399 54 454 -27 33 -85
61 -127 61 -41 -1 -81 -27 -178 -115 -49 -44 -111 -100 -139 -125 -27 -25 -52
-47 -55 -50 -3 -3 -22 -21 -43 -39 l-37 -35 0 112 c0 106 1 112 20 112 12 0
28 12 38 29 16 27 18 56 16 293 -2 237 -4 269 -22 320 -30 82 -68 132 -173
229 -51 46 -115 106 -143 132 -28 27 -68 64 -89 82 -35 31 -190 173 -273 250
-17 17 -51 48 -75 70 -24 21 -98 89 -164 150 -66 60 -167 153 -224 205 -57 52
-114 104 -125 115 -12 11 -60 56 -109 99 l-87 79 0 403 c0 274 -4 411 -11 427
-6 14 -22 30 -35 36 -13 6 -24 16 -25 23 -1 7 -2 55 -3 106 -2 93 -1 94 26
108 15 8 32 23 38 33 15 29 14 692 -2 728 -31 71 -110 107 -182 83 -18 -6 -48
-27 -66 -48 -19 -20 -50 -55 -69 -77 -20 -22 -54 -62 -76 -89 -22 -27 -44 -54
-50 -60 -34 -39 -94 -106 -115 -132 -14 -16 -81 -94 -149 -174 -69 -80 -126
-147 -127 -149 -6 -8 -1226 -3 -1234 5 -4 5 -54 63 -110 129 -56 66 -114 134
-128 150 -15 17 -81 93 -147 170 -65 77 -124 145 -130 151 -6 6 -27 30 -46 53
-18 23 -44 49 -57 57 -37 24 -102 27 -141 7z"/>
</g>
</svg>
